<svg xmlns="http://www.w3.org/2000/svg" xmlns:xlink="http://www.w3.org/1999/xlink" fill="none" version="1.1" width="20" height="20" viewBox="0 0 20 20"><defs><clipPath id="master_svg0_1192_25008/1096_18346"><rect x="0" y="0" width="20" height="20" rx="0"/></clipPath><linearGradient x1="0" y1="0.5" x2="1" y2="0.5" id="master_svg1_20_20916"><stop offset="0%" stop-color="#70C3EC" stop-opacity="1"/><stop offset="100%" stop-color="#426DF7" stop-opacity="1"/></linearGradient></defs><g clip-path="url(#master_svg0_1192_25008/1096_18346)"><g><path d="M5.16792,14.0437L3.98645,15.2252C3.76958,15.442,3.76958,15.7967,3.98645,16.0136C4.20331,16.2304,4.557980000000001,16.2304,4.77485,16.0136L5.95633,14.8321C6.17319,14.6152,6.17319,14.2605,5.95633,14.0437C5.73946,13.8268,5.38479,13.8268,5.16792,14.0437ZM4.82907,5.62425C5.04819,5.84337,5.40512,5.84337,5.62425,5.62425C5.84337,5.40512,5.84337,5.04819,5.62425,4.82907L4.4314800000000005,3.63629C4.21235,3.41717,3.85542,3.41717,3.6363,3.63629C3.41717,3.85542,3.41717,4.21235,3.6363,4.4314800000000005L4.82907,5.62425ZM3.25,9.4375L1.5625,9.4375C1.250753,9.4375,1,9.68825,1,10C1,10.31175,1.253012,10.5625,1.5625,10.5625L3.25,10.5625C3.56175,10.5625,3.8125,10.31175,3.8125,10C3.8125,9.69051,3.55949,9.4375,3.25,9.4375ZM10,3.8125C10.31175,3.8125,10.5625,3.56175,10.5625,3.25L10.5625,1.5625C10.5625,1.250753,10.31175,1,10,1C9.68825,1,9.4375,1.250753,9.4375,1.5625L9.4375,3.25C9.4375,3.56175,9.69051,3.8125,10,3.8125ZM15.4126,5.37575L16.594099999999997,4.19428C16.811,3.97741,16.811,3.62274,16.594099999999997,3.40587C16.377299999999998,3.18901,16.0226,3.18901,15.8057,3.40587L14.6242,4.58735C14.4074,4.80422,14.4074,5.15889,14.6242,5.37575C14.8411,5.59488,15.1958,5.59488,15.4126,5.37575ZM18.4375,9.4375L16.75,9.4375C16.438299999999998,9.4375,16.1875,9.68825,16.1875,10C16.1875,10.31175,16.438299999999998,10.5625,16.75,10.5625L18.4375,10.5625C18.7492,10.5625,19,10.31175,19,10C19,9.69051,18.7492,9.4375,18.4375,9.4375ZM15.1709,14.3758C14.9518,14.1566,14.5949,14.1566,14.3758,14.3758C14.1566,14.5949,14.1566,14.9518,14.3758,15.1709L15.5685,16.3637C15.7877,16.5828,16.1446,16.5828,16.3637,16.3637C16.5828,16.1446,16.5828,15.7877,16.3637,15.5685L15.1709,14.3758ZM10,4.93524C7.20105,4.93524,4.932980000000001,7.20331,4.932980000000001,10.00226C4.932980000000001,12.8012,7.20105,15.0693,10,15.0693C12.7989,15.0693,15.067,12.8012,15.067,10.00226C15.067,7.20331,12.7989,4.93524,10,4.93524ZM10,16.1875C9.68825,16.1875,9.4375,16.438299999999998,9.4375,16.75L9.4375,18.4375C9.4375,18.7492,9.68825,19,10,19C10.31175,19,10.5625,18.7493,10.5625,18.4375L10.5625,16.75C10.5625,16.4405,10.31175,16.1875,10,16.1875Z" fill="url(#master_svg1_20_20916)" fill-opacity="1"/></g></g></svg>