<svg t="1709697886082" class="icon" viewBox="0 0 1024 1024" version="1.1" xmlns="http://www.w3.org/2000/svg" p-id="2076" width="170" height="170"><path d="M915.24970723 779.24240953H103.447864c-37.11700133 0.53024288-66.81060238 30.75408681-66.81060238 67.60596669 0 37.11700133 29.69360106 67.07572382 66.81060238 67.6059667h811.80184323c37.11700133-0.53024288 66.81060238-30.75408681 66.81060239-67.6059667 0-37.11700133-29.69360106-67.34084526-66.81060239-67.60596669zM103.71298544 245.02271191h811.80184323c37.38212276 0 67.6059667-30.22384394 67.60596669-67.6059667s-30.22384394-67.6059667-67.60596669-67.6059667H103.447864c-37.38212276 0-67.6059667 30.48896537-67.6059667 67.87108814 0 36.85187988 30.48896537 67.34084526 67.87108814 67.34084526z m811.53672179 199.37132139H509.34878562c-24.3911723-0.26512144-46.92649453 12.46070759-59.38720212 33.67042263-12.19558615 20.9445936-12.19558615 47.19161597 0 68.13620957 12.19558615 20.9445936 34.99602981 33.93554407 59.38720212 33.67042263h405.90092161c24.3911723 0.26512144 46.92649453-12.46070759 59.38720212-33.67042263 12.19558615-20.9445936 12.19558615-47.19161597 0-68.13620957-12.19558615-21.20971504-34.99602981-34.2006655-59.38720212-33.67042263z m-856.34224481 104.45784658l168.08699171 93.3227462c29.69360106 16.43752915 66.2803595-5.03730733 66.2803595-38.97285139V416.55628231c0-33.93554407-36.58675845-55.41038055-66.2803595-38.97285139l-168.08699171 93.32274618c-30.48896537 16.96777203-30.48896537 60.97793075 0 77.94570278z m0 0" p-id="2077"></path></svg>